<svg width="28" height="23" viewBox="0 0 28 23" fill="none" xmlns="http://www.w3.org/2000/svg">
<g clip-path="url(#clip0_4583_889)">
<path d="M19.1958 8.22177H12.9387" stroke="#93AFB9" stroke-width="0.85" stroke-linecap="round" stroke-linejoin="round"/>
<path d="M19.1958 11.7514H12.9387" stroke="#93AFB9" stroke-width="0.85" stroke-linecap="round" stroke-linejoin="round"/>
<path d="M19.1958 4.6817H12.9387" stroke="#93AFB9" stroke-width="0.85" stroke-linecap="round" stroke-linejoin="round"/>
<path d="M24.9878 11.7514H22.0564" stroke="#93AFB9" stroke-width="0.85" stroke-linecap="round" stroke-linejoin="round"/>
<path d="M22.0564 15.4485H24.9878" stroke="#93AFB9" stroke-width="0.85" stroke-linecap="round" stroke-linejoin="round"/>
<path d="M12.9387 0.534149H22.0564V22.5287" stroke="#93AFB9" stroke-width="0.85" stroke-linecap="round" stroke-linejoin="round"/>
<path d="M7.96533 22.5287V17.7632" stroke="#93AFB9" stroke-width="0.85" stroke-linecap="round" stroke-linejoin="round"/>
<path d="M2.4563 17.7632V22.5287H7.96532H22.0563H27.5754V6.44125H22.0563" stroke="#93AFB9" stroke-width="0.85" stroke-linecap="round" stroke-linejoin="round"/>
<path d="M12.5039 22.5601V15.4485H17.5176V22.5601" stroke="#93AFB9" stroke-width="0.85" stroke-linecap="round" stroke-linejoin="round"/>
<path d="M0.43457 0.450378V4.9645C0.43457 5.59291 0.737819 6.16896 1.24323 6.51459L1.84973 6.92306C2.18331 7.15348 2.37536 7.541 2.36526 7.94947L2.22374 14.5583C2.20352 15.3333 2.81002 15.9827 3.55804 15.9827C4.30605 15.9827 4.91255 15.3438 4.89233 14.5583L4.75082 7.94947C4.75082 7.541 4.94287 7.15348 5.26634 6.92306L5.87284 6.51459C6.37825 6.16896 6.6815 5.59291 6.6815 4.9645V0.450378" stroke="#93AFB9" stroke-width="0.85" stroke-linecap="round" stroke-linejoin="round"/>
<path d="M4.5791 4.77597V0.450378" stroke="#93AFB9" stroke-width="0.85" stroke-linecap="round" stroke-linejoin="round"/>
<path d="M2.53711 0.450378V4.77597" stroke="#93AFB9" stroke-width="0.85" stroke-linecap="round" stroke-linejoin="round"/>
<path d="M8.61212 2.39847L7.32837 9.7614L8.97602 10.107L8.76375 14.5374C8.72332 15.2915 9.3096 15.9199 10.0374 15.9199C10.7349 15.9199 11.311 15.3333 11.311 14.6002V0.450378H10.8764C9.76447 0.450378 8.8244 1.27779 8.62223 2.39847H8.61212Z" stroke="#93AFB9" stroke-width="0.85" stroke-linecap="round" stroke-linejoin="round"/>
</g>
<defs>
<clipPath id="clip0_4583_889">
<rect width="28" height="23" fill="white"/>
</clipPath>
</defs>
</svg>
