<svg width="21" height="21" viewBox="0 0 21 21" fill="none" xmlns="http://www.w3.org/2000/svg">
<path d="M7.71133 7.62496C7.93664 6.98447 8.38135 6.4444 8.96671 6.10038C9.55206 5.75636 10.2403 5.63061 10.9095 5.74539C11.5786 5.86018 12.1856 6.20809 12.6229 6.72751C13.0601 7.24693 13.2994 7.90434 13.2984 8.58329C13.2984 10.5 10.4234 11.4583 10.4234 11.4583M10.5001 15.2916H10.5097M20.0834 10.5C20.0834 15.7927 15.7928 20.0833 10.5001 20.0833C5.20735 20.0833 0.916748 15.7927 0.916748 10.5C0.916748 5.20723 5.20735 0.916626 10.5001 0.916626C15.7928 0.916626 20.0834 5.20723 20.0834 10.5Z" stroke="#211F45" stroke-width="1.5" stroke-linecap="round" stroke-linejoin="round"/>
</svg>
